inDegrees=no
num_controls=7
num_derivatives=13
num_iterations=53
num_multipliers=7
num_parameters=0
num_slacks=7
num_states=26
objective=0.432061
objective_accelerations=0.052335
objective_balance=0.006894
objective_effort=0.033179
objective_height=0.338503
objective_ligament=0.001151
solver_duration=690.842373
status=Solve_Succeeded
success=true
DataType=double
version=3
OpenSimVersion=4.5
endheader
time	/jointset/ground_pelvis/pelvis_tilt/value	/jointset/ground_pelvis/pelvis_tx/value	/jointset/ground_pelvis/pelvis_ty/value	/jointset/hip_l/hip_flexion_l/value	/jointset/hip_l/hip_adduction_l/value	/jointset/hip_l/hip_rotation_l/value	/jointset/back/lumbar_extension/value	/jointset/patellofemoral_l/patellar_flexion_l/value	/jointset/knee_l/knee_flexion_l/value	/jointset/knee_l/knee_adduction_l/value	/jointset/knee_l/knee_rotation_l/value	/jointset/ankle_l/ankle_angle_l/value	/jointset/subtalar_l/subtalar_angle_l/value	/jointset/ground_pelvis/pelvis_tilt/speed	/jointset/ground_pelvis/pelvis_tx/speed	/jointset/ground_pelvis/pelvis_ty/speed	/jointset/hip_l/hip_flexion_l/speed	/jointset/hip_l/hip_adduction_l/speed	/jointset/hip_l/hip_rotation_l/speed	/jointset/back/lumbar_extension/speed	/jointset/patellofemoral_l/patellar_flexion_l/speed	/jointset/knee_l/knee_flexion_l/speed	/jointset/knee_l/knee_adduction_l/speed	/jointset/knee_l/knee_rotation_l/speed	/jointset/ankle_l/ankle_angle_l/speed	/jointset/subtalar_l/subtalar_angle_l/speed	/forceset/tau_hip_flexion_l	/forceset/tau_hip_adduction_l	/forceset/tau_hip_rotation_l	/forceset/tau_knee_flexion_l	/forceset/tau_ankle_angle_l	/forceset/tau_subtalar_angle_l	/forceset/tau_lumbar_extension	lambda_cid13_p0	lambda_cid13_p1	lambda_cid13_p2	lambda_cid13_p3	lambda_cid13_p4	lambda_cid13_p5	lambda_cid14_p0	/jointset/ground_pelvis/pelvis_tilt/accel	/jointset/ground_pelvis/pelvis_tx/accel	/jointset/ground_pelvis/pelvis_ty/accel	/jointset/hip_l/hip_flexion_l/accel	/jointset/hip_l/hip_adduction_l/accel	/jointset/hip_l/hip_rotation_l/accel	/jointset/back/lumbar_extension/accel	/jointset/patellofemoral_l/patellar_flexion_l/accel	/jointset/knee_l/knee_flexion_l/accel	/jointset/knee_l/knee_adduction_l/accel	/jointset/knee_l/knee_rotation_l/accel	/jointset/ankle_l/ankle_angle_l/accel	/jointset/subtalar_l/subtalar_angle_l/accel	gamma_cid13_p0	gamma_cid13_p1	gamma_cid13_p2	gamma_cid13_p3	gamma_cid13_p4	gamma_cid13_p5	gamma_cid14_p0
1.5	-0.3544989807923553	-0.03518144404003028	0.7599467619368286	1.204999087740662	-0.3038464089782406	0.01224028783547546	-0.3338846794122928	0.8284712858735365	0.8284712858734284	-0.1698611108401696	0.1674886274567453	0.1600336296883572	-0.01907161754394922	0.4697037781777253	0.167529581400357	0.5265939856282615	-2.190210165360898	-0.01664548519064318	-0.7299334149680348	0.5743524996522947	-2.127333085452656	-2.127333085452659	0.01626257037594732	-0.02064942274299929	-0.5335331112348226	-0.1059353978248071	-0.19941488618993	0.06707233502131701	-0.02570034556245108	-0.2529951229365641	0.1084779606304194	-0.002770720456927595	0.1944424974346855	-4.398798412474695	1.265161972944871	0.2049966585533448	-2.114400850651844	-605.4044918185139	-17.80621221985803	-19.79054978585806	0.5070168783187924	0.5517731648093358	-0.4298549313923799	-1.334911338065368	0.6841432200097243	-0.5005582126683977	1.585451885668613	-1.425905211559447	-1.42590521155944	0.02585262053264821	0.06583529810248813	-0.6550641833437192	0.6884590481814774	4.07919161242354e-07	6.372033342190416e-07	-2.419965888844403e-06	-2.378458749603336e-07	4.754978535835409e-07	2.379551876755759e-07	4.088317877711502e-07
1.51	-0.3497767213565353	-0.03347867558826986	0.7651901063614726	1.183032421534695	-0.3039798655982326	0.004919383998452201	-0.3280632131103116	0.80712913978602	0.807129139785983	-0.1697017825989592	0.1672851659985276	0.1546660224316315	-0.02009808716648872	0.4746817077488848	0.1730060589249684	0.5219608220461375	-2.202806999993336	-0.01003434328603804	-0.7340834603699204	0.589859892433566	-2.140779626617099	-2.140779626617141	0.01552285661988093	-0.02008104799650954	-0.5398866676172448	-0.09934863035179281	-0.1927921048449614	0.06679198314880885	-0.02563808527583591	-0.2502340732476431	0.1102503703154807	-0.003377445219831812	0.1889737579913435	-3.596329923481534	1.213298432978837	0.4129937486277754	-2.412389055372811	-600.7695251928099	-17.84056732296501	-21.10150492103843	0.4832637305432921	0.5428276818164942	-0.4970516101444033	-1.174602299497895	0.6516306793971453	-0.347233785918066	1.521252728086898	-1.256642927441525	-1.256642927446867	-0.1358878679900652	0.04713447803854597	-0.6102526732088304	0.6454479121869341	4.419708696608487e-07	7.492667608863439e-07	-2.547318582255957e-06	-2.45403223474016e-07	5.149339103554253e-07	3.299745438526714e-07	4.365739947385023e-07
1.52	-0.3450066660782244	-0.03172169383415537	0.7703837182425957	1.160949280427651	-0.3040468045984215	-0.002438021509004615	-0.3220890989297811	0.7856620054151832	0.7856620054151754	-0.1695522523941929	0.1670863474707634	0.1492379293495762	-0.02105835665123297	0.4792629466812069	0.178372241871173	0.5166474769236864	-2.213505145572248	-0.003341961232975366	-0.7372337490505886	0.6048820753640325	-2.152330742123715	-2.152330742123795	0.01430296309124582	-0.01972083664534419	-0.5456302763003855	-0.09269537026576348	-0.1861693235000196	0.06651163127626297	-0.02557582498945294	-0.2474730235586919	0.1120227800005281	-0.00398416998278103	0.1835050185479528	-2.799766360985659	1.157944020964087	0.6267175896279955	-2.722168834672501	-596.2277570687731	-17.96691467882248	-22.40789237854699	0.4276787505521216	0.5297142491275537	-0.5658912394578482	-0.955173527359832	0.7003912497013451	-0.300606868424967	1.488409915508195	-1.046820079994013	-1.046820079993983	-0.07018333398107442	0.02420261903764079	-0.533074643488035	0.7017575707843496	4.778976330382749e-07	8.501754848571395e-07	-2.654684086542594e-06	-2.533074808124557e-07	5.57875972794987e-07	4.269804279295208e-07	4.617064997728885e-07
1.53	-0.340192832846988	-0.0299116809139829	0.7755208676092683	1.138768741995965	-0.3040463059651171	-0.009824036220532732	-0.315967415161976	0.7640891157408944	0.7640891157408374	-0.1694155808890905	0.1668913669097961	0.1437555316953778	-0.02195160809809519	0.4834248730201189	0.1836036033024349	0.5106734603832814	-2.222253400669528	0.00348217879898934	-0.7400091558200699	0.6193589640752833	-2.161880975902519	-2.161880975902744	0.01314397402984482	-0.01917892402350765	-0.5507274360309729	-0.08590878324716295	-0.1794208578721121	0.06605109756553115	-0.0255045947195628	-0.2448754285871422	0.1139239761433815	-0.004752962278048467	0.177903307469299	-1.974876906714754	1.1715694318357	0.8253833414115597	-2.992556040204795	-591.7750055734024	-18.02290733327701	-23.70742701463847	0.3986777142690991	0.5157830581385391	-0.6293713603508726	-0.7822134226524518	0.6798125415797633	-0.2715534433694242	1.412971230853601	-0.8542917101068668	-0.854291710128344	-0.1218291175614822	0.08419322615405478	-0.4797563918094714	0.6741983791623751	5.158166423095657e-07	9.392323372128966e-07	-2.740813202384007e-06	-2.615803287772e-07	6.045431662564554e-07	5.292844978998585e-07	4.840661965034987e-07
1.54	-0.3353397347246421	-0.02805016718589322	0.7805950339107384	1.116511208628947	-0.3039762884991513	-0.01723891417219704	-0.3097038339306813	0.7424316903922045	0.7424316903920378	-0.1692871137597046	0.1667048070034622	0.1382258184930787	-0.02277557585241855	0.4871159249073578	0.1886724034546147	0.5040508638827774	-2.228904132636304	0.0105618052963791	-0.743006397075935	0.6332615680633062	-2.16923787701263	-2.169237877013002	0.01266208795475683	-0.01803670570574855	-0.5550933859201966	-0.07883863175798846	-0.1726723922441752	0.06559056385480196	-0.02543336445030493	-0.2422778336154935	0.1158251722862378	-0.005521754573310509	0.1723015963906387	-1.153977065779078	1.180802524036419	1.03056614204201	-3.285446273241736	-587.3924926263373	-18.17669421699666	-24.99852885184658	0.3335038602183311	0.4972019933107923	-0.6956072314777118	-0.5356689012589	0.751488542786499	-0.3449737657017535	1.373552970863151	-0.6081535462557405	-0.6081535462557279	0.0652372632815202	0.1442637582222162	-0.3868326752158671	0.758470464899004	5.557722842901773e-07	1.056618098958139e-06	-2.890627937633738e-06	-2.733287401534756e-07	6.554773868008192e-07	6.363878361615375e-07	5.152448390244847e-07
1.55	-0.3304518978655037	-0.02613880205772528	0.785599844700233	1.094197187279614	-0.303835054414156	-0.02468138036203027	-0.3033044027039569	0.7207110498978094	0.7207110498978024	-0.1691637419395289	0.1665305828693861	0.1326558651363725	-0.02352843495065659	0.4903842937974963	0.1935710785469064	0.4968114241928339	-2.233575595665684	0.01766027430075978	-0.7451933467025483	0.6465063236250003	-2.174564905960245	-2.174564905960443	0.01182882055596462	-0.01693407466160235	-0.5587860717113515	-0.07176270849109001	-0.1659470696626728	0.06481051031197629	-0.02527277543754329	-0.2398945785283996	0.1178632375562923	-0.006439852156232556	0.1667099849798698	-0.310904496168004	1.254083222564303	1.222010460995899	-3.538692335447316	-583.2498535980955	-18.26097661253436	-26.28015061935924	0.3134888774562003	0.4817091548674253	-0.7529443402118675	-0.3841278716831469	0.6856559323700543	-0.1109906598785925	1.282183800410014	-0.4462960939876685	-0.4462960939614233	-0.1850809198739184	0.07501538256552288	-0.343794332981407	0.67789865214641	5.980744813489192e-07	1.206643691086916e-06	-3.113819582201744e-06	-2.890816050256456e-07	7.113279646363447e-07	7.490207661501966e-07	5.565844408256859e-07
1.56	-0.3255333802226695	-0.02417934840109672	0.7905292946923422	1.071846202726402	-0.3036235096684808	-0.03213680306788518	-0.2967760745313022	0.6989468754089835	0.6989468754090824	-0.1690541972290684	0.1663637355666929	0.12705232336137	-0.02421138573731348	0.4932520816493916	0.1982901091467385	0.4889787044052868	-2.236296773411167	0.02462393742938284	-0.7455977002786536	0.6590409572501563	-2.177944675906762	-2.177944675906787	0.009896666020584786	-0.01656133941524103	-0.5618110695791668	-0.0648569694417499	-0.1592217470811102	0.06403045676915212	-0.02511218642539046	-0.2375113234411901	0.1199013028263543	-0.007357949739148613	0.1611183735691201	0.530833505835684	1.3219148759728	1.420816538159754	-3.828638907517396	-579.1442851932818	-18.4504231920714	-27.55189740588972	0.2533876525706218	0.4612730948185446	-0.8142632509984838	-0.145611844479474	0.7245273676351041	0.01154544439981315	1.231528583556119	-0.2187017460363462	-0.2187017460363507	-0.154540164036031	-0.00171540133467889	-0.2532950905483977	0.7244336213872066	5.971471416758687e-07	1.379545484247781e-06	-3.104464945420152e-06	-2.626438824426242e-07	7.171650479824549e-07	8.502780456423694e-07	5.679698555439934e-07
1.57	-0.320588306428204	-0.02217371580801249	0.7953775229530909	1.04947797057155	-0.3033429128664103	-0.03958915591349885	-0.2901261620265996	0.6771588879333946	0.6771588879334118	-0.1689678734377095	0.1661979484506345	0.1214218812711856	-0.02482598810138604	0.4956844108086238	0.2027938104209344	0.4805772088517551	-2.237010374700663	0.03147244312983941	-0.7446616161168262	0.6707953467220865	-2.179327112954376	-2.179327112954337	0.007265894467212424	-0.01668222764580577	-0.5641756039695578	-0.05809112772476671	-0.1524075340718314	0.06303803694234901	-0.02493280769625208	-0.2353598272359702	0.1219566201451183	-0.008464645694466831	0.1554168960460967	1.35107620258039	1.479278039169246	1.600938551839725	-3.973362117821821	-575.2923928193807	-18.5463201817592	-28.80441575698304	0.2264685712044799	0.4385012091326495	-0.8664279713142654	0.01672475014496051	0.6617716759906204	0.1668321882519121	1.1254645838143	-0.04926412742030467	-0.04926412741032719	-0.3325488481490937	-0.02966023910414611	-0.2127496694320974	0.6485545664171555	5.421828810880782e-07	1.581042528698752e-06	-2.804427456951564e-06	-1.834679255406139e-07	6.604852632167966e-07	9.373157620139342e-07	5.419125364086843e-07
